<svg width="26" height="26" viewBox="0 0 26 26" fill="none" xmlns="http://www.w3.org/2000/svg">
<path d="M9 14L12 17L17 10M25 13C25 14.6907 24.16 16.1867 22.876 17.0907C23.0143 17.881 22.9602 18.6931 22.7181 19.4581C22.476 20.2231 22.0532 20.9184 21.4853 21.4853C20.9184 22.0532 20.2231 22.476 19.4581 22.7181C18.6931 22.9602 17.881 23.0143 17.0907 22.876C16.6296 23.5326 16.0171 24.0685 15.3051 24.4382C14.593 24.808 13.8023 25.0006 13 25C11.3093 25 9.81333 24.16 8.90933 22.876C8.11898 23.0142 7.30695 22.96 6.54198 22.7179C5.77702 22.4759 5.08163 22.0531 4.51467 21.4853C3.94683 20.9184 3.52397 20.2231 3.2819 19.4581C3.03982 18.6931 2.98566 17.881 3.124 17.0907C2.46736 16.6296 1.9315 16.0171 1.56177 15.3051C1.19204 14.593 0.999348 13.8023 1 13C1 11.3093 1.84 9.81333 3.124 8.90933C2.98566 8.11898 3.03982 7.30692 3.2819 6.54193C3.52397 5.77695 3.94683 5.08156 4.51467 4.51467C5.08163 3.94693 5.77702 3.52413 6.54198 3.28206C7.30695 3.03999 8.11898 2.98577 8.90933 3.124C9.37046 2.46744 9.98296 1.93164 10.695 1.56192C11.4071 1.1922 12.1977 0.999459 13 1C14.6907 1 16.1867 1.84 17.0907 3.124C17.881 2.98577 18.693 3.03999 19.458 3.28206C20.223 3.52413 20.9184 3.94693 21.4853 4.51467C22.0531 5.08163 22.4759 5.77702 22.7179 6.54198C22.96 7.30695 23.0142 8.11898 22.876 8.90933C23.5326 9.37038 24.0685 9.98287 24.4382 10.6949C24.808 11.407 25.0007 12.1977 25 13V13Z" stroke="white" stroke-width="2" stroke-linecap="round" stroke-linejoin="round"/>
</svg>
