<svg width="18" height="15" viewBox="0 0 18 15" fill="none" xmlns="http://www.w3.org/2000/svg">
<path d="M6.75 1.8125H5.184C4.82321 1.81257 4.47194 1.92826 4.18173 2.14261C3.89152 2.35696 3.67765 2.65868 3.5715 3.0035L1.7625 8.88275C1.71295 9.04334 1.68767 9.21044 1.6875 9.3785V12.5C1.6875 12.9476 1.86529 13.3768 2.18176 13.6932C2.49822 14.0097 2.92745 14.1875 3.375 14.1875H14.625C15.0726 14.1875 15.5018 14.0097 15.8182 13.6932C16.1347 13.3768 16.3125 12.9476 16.3125 12.5V9.3785C16.3125 9.2105 16.287 9.04325 16.2375 8.88275L14.43 3.0035C14.3238 2.65868 14.11 2.35696 13.8198 2.14261C13.5296 1.92826 13.1783 1.81257 12.8175 1.8125H11.25M1.6875 9.125H4.5825C4.89585 9.12508 5.20299 9.2124 5.46951 9.37719C5.73602 9.54198 5.9514 9.77772 6.0915 10.058L6.2835 10.442C6.42366 10.7224 6.63915 10.9582 6.90581 11.123C7.17248 11.2878 7.47977 11.3751 7.79325 11.375H10.2068C10.5202 11.3751 10.8275 11.2878 11.0942 11.123C11.3609 10.9582 11.5763 10.7224 11.7165 10.442L11.9085 10.058C12.0487 9.7776 12.2641 9.54179 12.5308 9.37699C12.7975 9.2122 13.1048 9.12494 13.4183 9.125H16.3125M9 1.25V7.4375M9 7.4375L6.75 5.1875M9 7.4375L11.25 5.1875" stroke="#52525B" stroke-width="1.5" stroke-linecap="round" stroke-linejoin="round"/>
</svg>
