<svg width="24" height="25" viewBox="0 0 24 25" fill="none" xmlns="http://www.w3.org/2000/svg">
<path fill-rule="evenodd" clip-rule="evenodd" d="M2.05556 23.5C1.47259 23.5 1 23.0248 1 22.4387V2.56137C1 1.97519 1.47259 1.5 2.05556 1.5H21.9445C22.5274 1.5 23 1.97519 23 2.56137V22.4387C23 23.0248 22.5274 23.5 21.9445 23.5C21.2408 23.5 14.6111 23.5 2.05556 23.5Z" stroke="#52525B" stroke-width="2" stroke-linecap="round" stroke-linejoin="round"/>
<path d="M14.6743 16.7764V22.5001H12.6533V16.7764V15.7764H11.6533H9.3335V14.111H11.6104H12.5982L12.6104 13.1233L12.6533 9.6441L12.6534 9.63315L12.6533 9.62219L12.6414 8.37524L12.6414 8.37522C12.6298 7.16672 13.5999 6.17764 14.8084 6.16587L14.8087 6.16587L14.8296 6.16577H18.3308V8.44357H17.1538H16.8966C15.6692 8.44357 14.6743 9.43856 14.6743 10.6658V13.111V14.111H15.6743H18.1741L17.9308 15.7764H15.6743H14.6743V16.7764Z" fill="black" stroke="#52525B" stroke-width="2"/>
</svg>
