<svg width="20" height="20" viewBox="0 0 20 20" fill="none" xmlns="http://www.w3.org/2000/svg">
<path d="M3.54982 8.45564C3.3206 10.2103 3.18403 11.9758 3.14065 13.7448C5.53964 14.7469 7.83661 15.9776 9.99982 17.4198C12.1633 15.9776 14.4605 14.7469 16.8598 13.7448C16.8164 11.9758 16.6798 10.2103 16.4507 8.45564M3.54898 8.45564C2.817 8.20956 2.07839 7.98364 1.33398 7.77814C4.05348 5.87141 6.95648 4.24083 9.99982 2.91064C13.0431 4.24055 15.9461 5.87085 18.6657 7.77731C17.919 7.98398 17.1798 8.21064 16.4507 8.45564M3.54898 8.45564C5.77286 9.20325 7.9306 10.1348 9.99982 11.2406C12.0688 10.1349 14.2262 9.20331 16.4498 8.45564M5.62482 12.4998V9.43731C7.03876 8.55843 8.49923 7.7567 9.99982 7.03564M4.16065 16.6606C4.62563 16.1968 4.99435 15.6457 5.24562 15.0389C5.49689 14.4321 5.62576 13.7816 5.62482 13.1248V11.8748M5.62482 12.4998C5.79058 12.4998 5.94955 12.434 6.06676 12.3168C6.18397 12.1995 6.24982 12.0406 6.24982 11.8748C6.24982 11.7091 6.18397 11.5501 6.06676 11.4329C5.94955 11.3157 5.79058 11.2498 5.62482 11.2498C5.45906 11.2498 5.30009 11.3157 5.18288 11.4329C5.06567 11.5501 4.99982 11.7091 4.99982 11.8748C4.99982 12.0406 5.06567 12.1995 5.18288 12.3168C5.30009 12.434 5.45906 12.4998 5.62482 12.4998Z" stroke="#52525B" stroke-width="1.5" stroke-linecap="round" stroke-linejoin="round"/>
</svg>
