<svg width="22" height="23" viewBox="0 0 22 23" fill="none" xmlns="http://www.w3.org/2000/svg">
<mask id="path-1-inside-1_392_4217" fill="white">
<path fill-rule="evenodd" clip-rule="evenodd" d="M6.465 0.566C7.638 0.512 8.012 0.5 11 0.5C13.988 0.5 14.362 0.513 15.534 0.566C16.706 0.619 17.506 0.806 18.206 1.077C18.939 1.354 19.604 1.787 20.154 2.347C20.714 2.896 21.146 3.56 21.422 4.294C21.694 4.994 21.88 5.794 21.934 6.964C21.988 8.139 22 8.513 22 11.5C22 14.488 21.987 14.862 21.934 16.035C21.881 17.205 21.694 18.005 21.422 18.705C21.146 19.4391 20.7133 20.1042 20.154 20.654C19.604 21.214 18.939 21.646 18.206 21.922C17.506 22.194 16.706 22.38 15.536 22.434C14.362 22.488 13.988 22.5 11 22.5C8.012 22.5 7.638 22.487 6.465 22.434C5.295 22.381 4.495 22.194 3.795 21.922C3.06092 21.646 2.39582 21.2133 1.846 20.654C1.28638 20.1047 0.853315 19.4399 0.577 18.706C0.306 18.006 0.12 17.206 0.066 16.036C0.012 14.861 0 14.487 0 11.5C0 8.512 0.013 8.138 0.066 6.966C0.119 5.794 0.306 4.994 0.577 4.294C0.853723 3.56008 1.28712 2.89531 1.847 2.346C2.39604 1.7865 3.06047 1.35344 3.794 1.077C4.494 0.806 5.294 0.62 6.464 0.566H6.465ZM15.445 2.546C14.285 2.493 13.937 2.482 11 2.482C8.063 2.482 7.715 2.493 6.555 2.546C5.482 2.595 4.9 2.774 4.512 2.925C3.999 3.125 3.632 3.362 3.247 3.747C2.88205 4.10205 2.60118 4.53428 2.425 5.012C2.274 5.4 2.095 5.982 2.046 7.055C1.993 8.215 1.982 8.563 1.982 11.5C1.982 14.437 1.993 14.785 2.046 15.945C2.095 17.018 2.274 17.6 2.425 17.988C2.601 18.465 2.882 18.898 3.247 19.253C3.602 19.618 4.035 19.899 4.512 20.075C4.9 20.226 5.482 20.405 6.555 20.454C7.715 20.507 8.062 20.518 11 20.518C13.938 20.518 14.285 20.507 15.445 20.454C16.518 20.405 17.1 20.226 17.488 20.075C18.001 19.875 18.368 19.638 18.753 19.253C19.118 18.898 19.399 18.465 19.575 17.988C19.726 17.6 19.905 17.018 19.954 15.945C20.007 14.785 20.018 14.437 20.018 11.5C20.018 8.563 20.007 8.215 19.954 7.055C19.905 5.982 19.726 5.4 19.575 5.012C19.375 4.499 19.138 4.132 18.753 3.747C18.3979 3.38207 17.9657 3.10121 17.488 2.925C17.1 2.774 16.518 2.595 15.445 2.546ZM9.595 14.891C10.3797 15.2176 11.2534 15.2617 12.0669 15.0157C12.8805 14.7697 13.5834 14.2489 14.0556 13.5422C14.5278 12.8356 14.7401 11.9869 14.656 11.1411C14.572 10.2953 14.197 9.50497 13.595 8.905C13.2112 8.52148 12.7472 8.22781 12.2363 8.04515C11.7255 7.86248 11.1804 7.79536 10.6405 7.84862C10.1006 7.90187 9.57915 8.07418 9.1138 8.35313C8.64845 8.63208 8.25074 9.01074 7.9493 9.46185C7.64786 9.91296 7.45019 10.4253 7.37052 10.962C7.29084 11.4986 7.33115 12.0463 7.48854 12.5655C7.64593 13.0847 7.91648 13.5626 8.28072 13.9647C8.64496 14.3668 9.09382 14.6832 9.595 14.891ZM7.002 7.502C7.52702 6.97697 8.15032 6.5605 8.8363 6.27636C9.52228 5.99222 10.2575 5.84597 11 5.84597C11.7425 5.84597 12.4777 5.99222 13.1637 6.27636C13.8497 6.5605 14.473 6.97697 14.998 7.502C15.523 8.02702 15.9395 8.65032 16.2236 9.3363C16.5078 10.0223 16.654 10.7575 16.654 11.5C16.654 12.2425 16.5078 12.9777 16.2236 13.6637C15.9395 14.3497 15.523 14.973 14.998 15.498C13.9377 16.5583 12.4995 17.154 11 17.154C9.50046 17.154 8.06234 16.5583 7.002 15.498C5.94166 14.4377 5.34597 12.9995 5.34597 11.5C5.34597 10.0005 5.94166 8.56234 7.002 7.502ZM17.908 6.688C18.0381 6.56527 18.1423 6.41768 18.2143 6.25397C18.2863 6.09027 18.3248 5.91377 18.3274 5.73493C18.33 5.55609 18.2967 5.37855 18.2295 5.21281C18.1622 5.04707 18.0624 4.89651 17.936 4.77004C17.8095 4.64357 17.6589 4.54376 17.4932 4.47652C17.3275 4.40928 17.1499 4.37598 16.9711 4.37858C16.7922 4.38119 16.6157 4.41965 16.452 4.4917C16.2883 4.56374 16.1407 4.6679 16.018 4.798C15.7793 5.05103 15.6486 5.38712 15.6537 5.73493C15.6588 6.08274 15.7992 6.41488 16.0452 6.66084C16.2911 6.90681 16.6233 7.04723 16.9711 7.0523C17.3189 7.05737 17.655 6.92669 17.908 6.688Z"/>
</mask>
<path fill-rule="evenodd" clip-rule="evenodd" d="M6.465 0.566C7.638 0.512 8.012 0.5 11 0.5C13.988 0.5 14.362 0.513 15.534 0.566C16.706 0.619 17.506 0.806 18.206 1.077C18.939 1.354 19.604 1.787 20.154 2.347C20.714 2.896 21.146 3.56 21.422 4.294C21.694 4.994 21.88 5.794 21.934 6.964C21.988 8.139 22 8.513 22 11.5C22 14.488 21.987 14.862 21.934 16.035C21.881 17.205 21.694 18.005 21.422 18.705C21.146 19.4391 20.7133 20.1042 20.154 20.654C19.604 21.214 18.939 21.646 18.206 21.922C17.506 22.194 16.706 22.38 15.536 22.434C14.362 22.488 13.988 22.5 11 22.5C8.012 22.5 7.638 22.487 6.465 22.434C5.295 22.381 4.495 22.194 3.795 21.922C3.06092 21.646 2.39582 21.2133 1.846 20.654C1.28638 20.1047 0.853315 19.4399 0.577 18.706C0.306 18.006 0.12 17.206 0.066 16.036C0.012 14.861 0 14.487 0 11.5C0 8.512 0.013 8.138 0.066 6.966C0.119 5.794 0.306 4.994 0.577 4.294C0.853723 3.56008 1.28712 2.89531 1.847 2.346C2.39604 1.7865 3.06047 1.35344 3.794 1.077C4.494 0.806 5.294 0.62 6.464 0.566H6.465ZM15.445 2.546C14.285 2.493 13.937 2.482 11 2.482C8.063 2.482 7.715 2.493 6.555 2.546C5.482 2.595 4.9 2.774 4.512 2.925C3.999 3.125 3.632 3.362 3.247 3.747C2.88205 4.10205 2.60118 4.53428 2.425 5.012C2.274 5.4 2.095 5.982 2.046 7.055C1.993 8.215 1.982 8.563 1.982 11.5C1.982 14.437 1.993 14.785 2.046 15.945C2.095 17.018 2.274 17.6 2.425 17.988C2.601 18.465 2.882 18.898 3.247 19.253C3.602 19.618 4.035 19.899 4.512 20.075C4.9 20.226 5.482 20.405 6.555 20.454C7.715 20.507 8.062 20.518 11 20.518C13.938 20.518 14.285 20.507 15.445 20.454C16.518 20.405 17.1 20.226 17.488 20.075C18.001 19.875 18.368 19.638 18.753 19.253C19.118 18.898 19.399 18.465 19.575 17.988C19.726 17.6 19.905 17.018 19.954 15.945C20.007 14.785 20.018 14.437 20.018 11.5C20.018 8.563 20.007 8.215 19.954 7.055C19.905 5.982 19.726 5.4 19.575 5.012C19.375 4.499 19.138 4.132 18.753 3.747C18.3979 3.38207 17.9657 3.10121 17.488 2.925C17.1 2.774 16.518 2.595 15.445 2.546ZM9.595 14.891C10.3797 15.2176 11.2534 15.2617 12.0669 15.0157C12.8805 14.7697 13.5834 14.2489 14.0556 13.5422C14.5278 12.8356 14.7401 11.9869 14.656 11.1411C14.572 10.2953 14.197 9.50497 13.595 8.905C13.2112 8.52148 12.7472 8.22781 12.2363 8.04515C11.7255 7.86248 11.1804 7.79536 10.6405 7.84862C10.1006 7.90187 9.57915 8.07418 9.1138 8.35313C8.64845 8.63208 8.25074 9.01074 7.9493 9.46185C7.64786 9.91296 7.45019 10.4253 7.37052 10.962C7.29084 11.4986 7.33115 12.0463 7.48854 12.5655C7.64593 13.0847 7.91648 13.5626 8.28072 13.9647C8.64496 14.3668 9.09382 14.6832 9.595 14.891ZM7.002 7.502C7.52702 6.97697 8.15032 6.5605 8.8363 6.27636C9.52228 5.99222 10.2575 5.84597 11 5.84597C11.7425 5.84597 12.4777 5.99222 13.1637 6.27636C13.8497 6.5605 14.473 6.97697 14.998 7.502C15.523 8.02702 15.9395 8.65032 16.2236 9.3363C16.5078 10.0223 16.654 10.7575 16.654 11.5C16.654 12.2425 16.5078 12.9777 16.2236 13.6637C15.9395 14.3497 15.523 14.973 14.998 15.498C13.9377 16.5583 12.4995 17.154 11 17.154C9.50046 17.154 8.06234 16.5583 7.002 15.498C5.94166 14.4377 5.34597 12.9995 5.34597 11.5C5.34597 10.0005 5.94166 8.56234 7.002 7.502ZM17.908 6.688C18.0381 6.56527 18.1423 6.41768 18.2143 6.25397C18.2863 6.09027 18.3248 5.91377 18.3274 5.73493C18.33 5.55609 18.2967 5.37855 18.2295 5.21281C18.1622 5.04707 18.0624 4.89651 17.936 4.77004C17.8095 4.64357 17.6589 4.54376 17.4932 4.47652C17.3275 4.40928 17.1499 4.37598 16.9711 4.37858C16.7922 4.38119 16.6157 4.41965 16.452 4.4917C16.2883 4.56374 16.1407 4.6679 16.018 4.798C15.7793 5.05103 15.6486 5.38712 15.6537 5.73493C15.6588 6.08274 15.7992 6.41488 16.0452 6.66084C16.2911 6.90681 16.6233 7.04723 16.9711 7.0523C17.3189 7.05737 17.655 6.92669 17.908 6.688Z" fill="black"/>
<path d="M6.465 0.566V4.941H6.56565L6.66619 4.93637L6.465 0.566ZM18.206 1.077L16.6265 5.15692L16.6429 5.16329L16.6594 5.16953L18.206 1.077ZM20.154 2.347L17.0327 5.4126L17.0617 5.44214L17.0912 5.47112L20.154 2.347ZM21.422 4.294L17.3269 5.83383L17.3354 5.85625L17.344 5.87858L21.422 4.294ZM21.934 6.964L26.3044 6.76315L26.3043 6.76229L21.934 6.964ZM21.934 16.035L26.3045 16.233L26.3045 16.2325L21.934 16.035ZM21.422 18.705L17.344 17.1204L17.3353 17.1428L17.3269 17.1653L21.422 18.705ZM20.154 20.654L17.087 17.5341L17.0596 17.561L17.0327 17.5884L20.154 20.654ZM18.206 21.922L16.6643 17.8276L16.6428 17.8357L16.6214 17.844L18.206 21.922ZM15.536 22.434L15.737 26.8044L15.7377 26.8043L15.536 22.434ZM6.465 22.434L6.26702 26.8045L6.26752 26.8045L6.465 22.434ZM3.795 21.922L5.37958 17.844L5.35727 17.8354L5.33487 17.827L3.795 21.922ZM1.846 20.654L4.9658 17.5868L4.93852 17.5591L4.91075 17.5318L1.846 20.654ZM0.577 18.706L4.67141 17.1644L4.66425 17.1454L4.65692 17.1265L0.577 18.706ZM0.066 16.036L-4.30439 16.2369L-4.30435 16.2377L0.066 16.036ZM0.577 4.294L4.65692 5.87351L4.66388 5.85554L4.67068 5.83751L0.577 4.294ZM1.847 2.346L4.91098 5.46892L4.94059 5.43988L4.96964 5.41027L1.847 2.346ZM3.794 1.077L5.33687 5.17092L5.35522 5.164L5.37351 5.15692L3.794 1.077ZM6.464 0.566V-3.809H6.36309L6.26229 -3.80435L6.464 0.566ZM6.555 2.546L6.75458 6.91645L6.75468 6.91644L6.555 2.546ZM4.512 2.925L2.92528 -1.15213L2.92285 -1.15118L4.512 2.925ZM3.247 3.747L6.29775 6.88285L6.31932 6.86187L6.34059 6.84059L3.247 3.747ZM2.425 5.012L6.50213 6.59872L6.51626 6.56239L6.52975 6.52582L2.425 5.012ZM2.046 7.055L6.41644 7.25468L6.41645 7.25458L2.046 7.055ZM2.046 15.945L6.41645 15.7454L6.41644 15.7453L2.046 15.945ZM2.425 17.988L6.52952 16.4735L6.51614 16.4373L6.50213 16.4013L2.425 17.988ZM3.247 19.253L6.38326 16.2027L6.34089 16.1591L6.29733 16.1167L3.247 19.253ZM4.512 20.075L6.09872 15.9979L6.06271 15.9839L6.02645 15.9705L4.512 20.075ZM6.555 20.454L6.75468 16.0836L6.75458 16.0836L6.555 20.454ZM15.445 20.454L15.2454 16.0836L15.2453 16.0836L15.445 20.454ZM17.488 20.075L19.0747 24.1521L19.0772 24.1512L17.488 20.075ZM18.753 19.253L15.7027 16.1167L15.6809 16.1379L15.6594 16.1594L18.753 19.253ZM19.575 17.988L15.4979 16.4013L15.4839 16.4373L15.4705 16.4735L19.575 17.988ZM19.954 15.945L15.5836 15.7453L15.5836 15.7454L19.954 15.945ZM19.954 7.055L15.5836 7.25458L15.5836 7.25468L19.954 7.055ZM19.575 5.012L23.6521 3.42528L23.6512 3.42285L19.575 5.012ZM18.753 3.747L15.6174 6.79796L15.6382 6.81942L15.6594 6.84059L18.753 3.747ZM17.488 2.925L15.9013 7.00213L15.9375 7.01621L15.9739 7.02965L17.488 2.925ZM9.595 14.891L11.2763 10.852L11.2708 10.8497L9.595 14.891ZM13.595 8.905L10.5024 11.9996L10.5066 12.0038L13.595 8.905ZM11 5.84597V1.47097V5.84597ZM16.654 11.5H21.029H16.654ZM5.34597 11.5H0.970974H5.34597ZM16.018 4.798L12.8355 1.7959V1.7959L16.018 4.798ZM6.66619 4.93637C7.73712 4.88707 8.03117 4.875 11 4.875V-3.875C7.99283 -3.875 7.53888 -3.86307 6.26381 -3.80437L6.66619 4.93637ZM11 4.875C13.9655 4.875 14.2626 4.88798 15.3364 4.93653L15.7316 -3.80453C14.4614 -3.86198 14.0105 -3.875 11 -3.875V4.875ZM15.3364 4.93653C15.7342 4.95452 16.0018 4.99216 16.1847 5.02893C16.3599 5.06415 16.4952 5.10611 16.6265 5.15692L19.7855 -3.00292C18.596 -3.46344 17.323 -3.73257 15.7316 -3.80453L15.3364 4.93653ZM16.6594 5.16953C16.8008 5.22293 16.9281 5.30609 17.0327 5.4126L23.2753 -0.718598C22.2799 -1.73209 21.0772 -2.51493 19.7526 -3.01553L16.6594 5.16953ZM17.0912 5.47112C17.1943 5.57214 17.2747 5.69492 17.3269 5.83383L25.5171 2.75417C25.0173 1.42508 24.2337 0.219864 23.2168 -0.777123L17.0912 5.47112ZM17.344 5.87858C17.3938 6.00653 17.4354 6.14033 17.4707 6.31551C17.5075 6.49858 17.5452 6.76677 17.5637 7.16571L26.3043 6.76229C26.2313 5.17854 25.9642 3.9042 25.5 2.70942L17.344 5.87858ZM17.5636 7.16485C17.6129 8.23805 17.625 8.53231 17.625 11.5H26.375C26.375 8.49369 26.3631 8.03995 26.3044 6.76315L17.5636 7.16485ZM17.625 11.5C17.625 14.4654 17.612 14.7627 17.5635 15.8375L26.3045 16.2325C26.362 14.9613 26.375 14.5106 26.375 11.5H17.625ZM17.5635 15.837C17.5455 16.2336 17.5079 16.5003 17.4713 16.6823C17.4362 16.8566 17.3944 16.9908 17.344 17.1204L25.5 20.2896C25.9633 19.0973 26.2325 17.8224 26.3045 16.233L17.5635 15.837ZM17.3269 17.1653C17.2747 17.3042 17.1928 17.43 17.087 17.5341L23.221 23.7739C24.2338 22.7784 25.0173 21.574 25.5171 20.2447L17.3269 17.1653ZM17.0327 17.5884C16.9302 17.6928 16.8049 17.7747 16.6643 17.8276L19.7477 26.0164C21.0731 25.5173 22.2778 24.7352 23.2753 23.7196L17.0327 17.5884ZM16.6214 17.844C16.4935 17.8938 16.3597 17.9354 16.1845 17.9707C16.0014 18.0075 15.7332 18.0452 15.3343 18.0637L15.7377 26.8043C17.3215 26.7313 18.5958 26.4642 19.7906 26L16.6214 17.844ZM15.335 18.0636C14.2629 18.1129 13.9688 18.125 11 18.125V26.875C14.0072 26.875 14.4611 26.8631 15.737 26.8044L15.335 18.0636ZM11 18.125C8.03458 18.125 7.73732 18.112 6.66248 18.0635L6.26752 26.8045C7.53868 26.862 7.98942 26.875 11 26.875V18.125ZM6.66298 18.0635C6.26636 18.0455 5.9997 18.0079 5.8177 17.9713C5.64343 17.9362 5.50923 17.8944 5.37958 17.844L2.21042 26C3.40272 26.4633 4.6776 26.7325 6.26702 26.8045L6.66298 18.0635ZM5.33487 17.827C5.19586 17.7747 5.06992 17.6927 4.9658 17.5868L-1.2738 23.7212C-0.278276 24.7338 0.925977 25.5172 2.25513 26.017L5.33487 17.827ZM4.91075 17.5318C4.8052 17.4282 4.72352 17.3028 4.67141 17.1644L-3.51741 20.2476C-3.01689 21.5769 -2.23244 22.7811 -1.21875 23.7762L4.91075 17.5318ZM4.65692 17.1265C4.60674 16.9969 4.56482 16.8617 4.52945 16.6857C4.49252 16.5018 4.45476 16.2331 4.43635 15.8343L-4.30435 16.2377C-4.23124 17.8218 -3.96421 19.094 -3.50292 20.2855L4.65692 17.1265ZM4.43639 15.8351C4.38707 14.762 4.375 14.4677 4.375 11.5H-4.375C-4.375 14.5063 -4.36307 14.96 -4.30439 16.2369L4.43639 15.8351ZM4.375 11.5C4.375 8.53452 4.38798 8.23736 4.43653 7.16364L-4.30453 6.76836C-4.36198 8.03864 -4.375 8.48948 -4.375 11.5H4.375ZM4.43653 7.16364C4.45452 6.76583 4.49216 6.49819 4.52893 6.31528C4.56415 6.1401 4.60611 6.00476 4.65692 5.87351L-3.50292 2.71449C-3.96344 3.90401 -4.23257 5.17696 -4.30453 6.76836L4.43653 7.16364ZM4.67068 5.83751C4.72304 5.69865 4.80504 5.57286 4.91098 5.46892L-1.21698 -0.776925C-2.2308 0.217765 -3.01559 1.42152 -3.51668 2.75049L4.67068 5.83751ZM4.96964 5.41027C5.07319 5.30474 5.19851 5.22306 5.33687 5.17092L2.25113 -3.01692C0.922429 -2.51617 -0.281114 -1.73174 -1.27564 -0.71827L4.96964 5.41027ZM5.37351 5.15692C5.50314 5.10674 5.63825 5.06482 5.81432 5.02945C5.99818 4.99252 6.26685 4.95476 6.66571 4.93635L6.26229 -3.80435C4.67821 -3.73124 3.406 -3.46421 2.21449 -3.00292L5.37351 5.15692ZM6.464 4.941H6.465V-3.809H6.464V4.941ZM15.6447 -1.82444C14.3829 -1.88209 13.9551 -1.893 11 -1.893V6.857C13.9189 6.857 14.1871 6.86809 15.2453 6.91644L15.6447 -1.82444ZM11 -1.893C8.04491 -1.893 7.61711 -1.88209 6.35532 -1.82444L6.75468 6.91644C7.81289 6.86809 8.08109 6.857 11 6.857V-1.893ZM6.35542 -1.82445C4.80089 -1.75346 3.75074 -1.47337 2.92528 -1.15213L6.09872 7.00213C6.12185 6.99312 6.13522 6.98749 6.1863 6.97663C6.25238 6.96259 6.42619 6.93144 6.75458 6.91645L6.35542 -1.82445ZM2.92285 -1.15118C1.86238 -0.737741 0.978922 -0.172106 0.153408 0.653408L6.34059 6.84059C6.34945 6.83173 6.34042 6.84149 6.31537 6.86211C6.28929 6.88358 6.25441 6.90978 6.21298 6.93666C6.12296 6.99508 6.06778 7.01419 6.10115 7.00118L2.92285 -1.15118ZM0.196249 0.611152C-0.636665 1.42146 -1.27767 2.40792 -1.67975 3.49818L6.52975 6.52582C6.48003 6.66065 6.40075 6.78264 6.29775 6.88285L0.196249 0.611152ZM-1.65213 3.42528C-1.97337 4.25074 -2.25346 5.30089 -2.32445 6.85542L6.41645 7.25458C6.43144 6.92619 6.46259 6.75238 6.47663 6.6863C6.48749 6.63522 6.49312 6.62185 6.50213 6.59872L-1.65213 3.42528ZM-2.32444 6.85532C-2.38209 8.11711 -2.393 8.54491 -2.393 11.5H6.357C6.357 8.58109 6.36809 8.31289 6.41644 7.25468L-2.32444 6.85532ZM-2.393 11.5C-2.393 14.4551 -2.38209 14.8829 -2.32444 16.1447L6.41644 15.7453C6.36809 14.6871 6.357 14.4189 6.357 11.5H-2.393ZM-2.32445 16.1446C-2.25346 17.6991 -1.97338 18.7493 -1.65213 19.5747L6.50213 16.4013C6.49312 16.3782 6.48749 16.3648 6.47663 16.3137C6.46259 16.2476 6.43144 16.0738 6.41645 15.7454L-2.32445 16.1446ZM-1.67952 19.5025C-1.27814 20.5903 -0.637594 21.5779 0.196669 22.3893L6.29733 16.1167C6.40159 16.2182 6.48014 16.3397 6.52952 16.4735L-1.67952 19.5025ZM0.110744 22.3033C0.92215 23.1376 1.90972 23.7781 2.99755 24.1795L6.02645 15.9705C6.16028 16.0199 6.28185 16.0984 6.38326 16.2027L0.110744 22.3033ZM2.92528 24.1521C3.75075 24.4734 4.80089 24.7535 6.35542 24.8244L6.75458 16.0836C6.42619 16.0686 6.25238 16.0374 6.1863 16.0234C6.13522 16.0125 6.12185 16.0069 6.09872 15.9979L2.92528 24.1521ZM6.35532 24.8244C7.6171 24.8821 8.04389 24.893 11 24.893V16.143C8.08011 16.143 7.8129 16.1319 6.75468 16.0836L6.35532 24.8244ZM11 24.893C13.9561 24.893 14.3829 24.8821 15.6447 24.8244L15.2453 16.0836C14.1871 16.1319 13.9199 16.143 11 16.143V24.893ZM15.6446 24.8244C17.1991 24.7535 18.2493 24.4734 19.0747 24.1521L15.9013 15.9979C15.8782 16.0069 15.8648 16.0125 15.8137 16.0234C15.7476 16.0374 15.5738 16.0686 15.2454 16.0836L15.6446 24.8244ZM19.0772 24.1512C20.1376 23.7377 21.0211 23.1721 21.8466 22.3466L15.6594 16.1594C15.6505 16.1683 15.6596 16.1585 15.6846 16.1379C15.7107 16.1164 15.7456 16.0902 15.787 16.0633C15.877 16.0049 15.9322 15.9858 15.8988 15.9988L19.0772 24.1512ZM21.8033 22.3893C22.6376 21.5779 23.2781 20.5903 23.6795 19.5025L15.4705 16.4735C15.5199 16.3397 15.5984 16.2181 15.7027 16.1167L21.8033 22.3893ZM23.6521 19.5747C23.9734 18.7493 24.2535 17.6991 24.3244 16.1446L15.5836 15.7454C15.5686 16.0738 15.5374 16.2476 15.5234 16.3137C15.5125 16.3648 15.5069 16.3782 15.4979 16.4013L23.6521 19.5747ZM24.3244 16.1447C24.3821 14.8829 24.393 14.4551 24.393 11.5H15.643C15.643 14.4189 15.6319 14.6871 15.5836 15.7453L24.3244 16.1447ZM24.393 11.5C24.393 8.54491 24.3821 8.11712 24.3244 6.85532L15.5836 7.25468C15.6319 8.31288 15.643 8.58109 15.643 11.5H24.393ZM24.3244 6.85542C24.2535 5.30089 23.9734 4.25075 23.6521 3.42528L15.4979 6.59872C15.5069 6.62185 15.5125 6.63522 15.5234 6.6863C15.5374 6.75238 15.5686 6.92619 15.5836 7.25458L24.3244 6.85542ZM23.6512 3.42285C23.2377 2.36238 22.6721 1.47892 21.8466 0.653408L15.6594 6.84059C15.6683 6.84945 15.6585 6.84042 15.6379 6.81537C15.6164 6.78929 15.5902 6.75441 15.5633 6.71298C15.5049 6.62296 15.4858 6.56778 15.4988 6.60115L23.6512 3.42285ZM21.8886 0.696041C21.0784 -0.136675 20.0921 -0.777561 19.0021 -1.17965L15.9739 7.02965C15.8393 6.97998 15.7174 6.90082 15.6174 6.79796L21.8886 0.696041ZM19.0747 -1.15213C18.2493 -1.47338 17.1991 -1.75346 15.6446 -1.82445L15.2454 6.91645C15.5738 6.93144 15.7476 6.96259 15.8137 6.97663C15.8648 6.98749 15.8782 6.99312 15.9013 7.00213L19.0747 -1.15213ZM7.91367 18.93C9.63397 19.6461 11.5495 19.7428 13.3332 19.2035L10.8007 10.828C10.9572 10.7806 11.1253 10.7891 11.2763 10.852L7.91367 18.93ZM13.3332 19.2035C15.1168 18.6641 16.6579 17.5223 17.6932 15.973L10.418 11.1115C10.5089 10.9755 10.6441 10.8753 10.8007 10.828L13.3332 19.2035ZM17.6932 15.973C18.7285 14.4237 19.1938 12.5629 19.0096 10.7087L10.3025 11.5735C10.2863 11.4108 10.3271 11.2475 10.418 11.1115L17.6932 15.973ZM19.0096 10.7087C18.8254 8.8544 18.0032 7.12158 16.6834 5.80618L10.5066 12.0038C10.3908 11.8884 10.3186 11.7363 10.3025 11.5735L19.0096 10.7087ZM16.6876 5.81044C15.8464 4.96972 14.8292 4.32598 13.7093 3.92556L10.7634 12.1647C10.6652 12.1296 10.5761 12.0732 10.5024 11.9996L16.6876 5.81044ZM13.7093 3.92556C12.5894 3.52514 11.3946 3.378 10.2111 3.49474L11.0699 12.2025C10.9662 12.2127 10.8615 12.1998 10.7634 12.1647L13.7093 3.92556ZM10.2111 3.49474C9.02747 3.61148 7.88449 3.9892 6.8644 4.60069L11.3632 12.1056C11.2738 12.1592 11.1736 12.1923 11.0699 12.2025L10.2111 3.49474ZM6.8644 4.60069C5.84431 5.21218 4.97249 6.04224 4.3117 7.03111L11.5869 11.8926C11.529 11.9792 11.4526 12.052 11.3632 12.1056L6.8644 4.60069ZM4.3117 7.03111C3.65091 8.01998 3.2176 9.14306 3.04294 10.3195L11.6981 11.6044C11.6828 11.7075 11.6448 11.8059 11.5869 11.8926L4.3117 7.03111ZM3.04294 10.3195C2.86829 11.4959 2.95665 12.6965 3.30167 13.8347L11.6754 11.2964C11.7056 11.3961 11.7134 11.5013 11.6981 11.6044L3.04294 10.3195ZM3.30167 13.8347C3.64668 14.9728 4.23976 16.0204 5.0382 16.9018L11.5232 11.0276C11.5932 11.1048 11.6452 11.1966 11.6754 11.2964L3.30167 13.8347ZM5.0382 16.9018C5.83665 17.7833 6.82061 18.4768 7.91923 18.9323L11.2708 10.8497C11.367 10.8896 11.4533 10.9504 11.5232 11.0276L5.0382 16.9018ZM10.0956 10.5956C10.2144 10.4768 10.3554 10.3826 10.5105 10.3183L7.16206 2.23439C5.94528 2.73839 4.83969 3.47713 3.90841 4.40841L10.0956 10.5956ZM10.5105 10.3183C10.6657 10.2541 10.832 10.221 11 10.221V1.47097C9.68297 1.47097 8.37883 1.73038 7.16206 2.23439L10.5105 10.3183ZM11 10.221C11.168 10.221 11.3343 10.2541 11.4895 10.3183L14.8379 2.23439C13.6212 1.73038 12.317 1.47097 11 1.47097V10.221ZM11.4895 10.3183C11.6446 10.3826 11.7856 10.4768 11.9044 10.5956L18.0916 4.40841C17.1603 3.47713 16.0547 2.73839 14.8379 2.23439L11.4895 10.3183ZM11.9044 10.5956C12.0232 10.7144 12.1174 10.8554 12.1817 11.0105L20.2656 7.66206C19.7616 6.44528 19.0229 5.33969 18.0916 4.40841L11.9044 10.5956ZM12.1817 11.0105C12.2459 11.1657 12.279 11.332 12.279 11.5H21.029C21.029 10.183 20.7696 8.87883 20.2656 7.66206L12.1817 11.0105ZM12.279 11.5C12.279 11.668 12.2459 11.8343 12.1817 11.9895L20.2656 15.3379C20.7696 14.1212 21.029 12.817 21.029 11.5H12.279ZM12.1817 11.9895C12.1174 12.1446 12.0232 12.2856 11.9044 12.4044L18.0916 18.5916C19.0229 17.6603 19.7616 16.5547 20.2656 15.3379L12.1817 11.9895ZM11.9044 12.4044C11.6645 12.6443 11.3392 12.779 11 12.779V21.529C13.6599 21.529 16.2108 20.4724 18.0916 18.5916L11.9044 12.4044ZM11 12.779C10.6608 12.779 10.3355 12.6443 10.0956 12.4044L3.90841 18.5916C5.78922 20.4724 8.34014 21.529 11 21.529V12.779ZM10.0956 12.4044C9.85573 12.1645 9.72097 11.8392 9.72097 11.5H0.970974C0.970974 14.1599 2.0276 16.7108 3.90841 18.5916L10.0956 12.4044ZM9.72097 11.5C9.72097 11.1608 9.85573 10.8355 10.0956 10.5956L3.90841 4.40841C2.0276 6.28922 0.970974 8.84014 0.970974 11.5H9.72097ZM20.9101 9.87046C21.4659 9.34611 21.9109 8.71558 22.2187 8.01619L14.2099 4.49176C14.3736 4.11979 14.6103 3.78443 14.9059 3.50554L20.9101 9.87046ZM22.2187 8.01619C22.5265 7.31679 22.6908 6.56275 22.702 5.7987L13.9529 5.67116C13.9588 5.26479 14.0462 4.86374 14.2099 4.49176L22.2187 8.01619ZM22.702 5.7987C22.7131 5.03466 22.5708 4.27614 22.2836 3.56807L14.1754 6.85755C14.0226 6.48095 13.947 6.07753 13.9529 5.67116L22.702 5.7987ZM22.2836 3.56807C21.9963 2.86 21.5699 2.21676 21.0296 1.67645L14.8424 7.86363C14.555 7.57626 14.3282 7.23414 14.1754 6.85755L22.2836 3.56807ZM21.0296 1.67645C20.4892 1.13613 19.846 0.709716 19.1379 0.422449L15.8485 8.53059C15.4719 8.3778 15.1297 8.151 14.8424 7.86363L21.0296 1.67645ZM19.1379 0.422449C18.4299 0.135184 17.6713 -0.00709075 16.9073 0.00404778L17.0348 8.75312C16.6285 8.75904 16.2251 8.68337 15.8485 8.53059L19.1379 0.422449ZM16.9073 0.00404778C16.1432 0.0151864 15.3892 0.179515 14.6898 0.487296L18.2142 8.4961C17.8423 8.65979 17.4412 8.74719 17.0348 8.75312L16.9073 0.00404778ZM14.6898 0.487296C13.9904 0.795075 13.3599 1.24006 12.8355 1.7959L19.2005 7.8001C18.9216 8.09573 18.5862 8.3324 18.2142 8.4961L14.6898 0.487296ZM12.8355 1.7959C11.8158 2.87691 11.2575 4.31279 11.2792 5.7987L20.0282 5.67116C20.0398 6.46146 19.7428 7.22514 19.2005 7.8001L12.8355 1.7959ZM11.2792 5.7987C11.3008 7.28462 11.9007 8.70361 12.9516 9.75444L19.1387 3.56725C19.6977 4.12615 20.0167 4.88086 20.0282 5.67116L11.2792 5.7987ZM12.9516 9.75444C14.0024 10.8053 15.4214 11.4052 16.9073 11.4268L17.0348 2.67776C17.8251 2.68929 18.5799 3.00836 19.1387 3.56725L12.9516 9.75444ZM16.9073 11.4268C18.3932 11.4485 19.8291 10.8902 20.9101 9.87046L14.9059 3.50554C15.4809 2.96318 16.2445 2.66624 17.0348 2.67776L16.9073 11.4268Z" fill="#52525B" mask="url(#path-1-inside-1_392_4217)"/>
</svg>
