<svg width="38" height="48" viewBox="0 0 38 48" fill="none" xmlns="http://www.w3.org/2000/svg">
<path d="M18.9999 0.666626C14.0814 0.66638 9.36151 2.6074 5.86615 6.06781C2.37079 9.52821 0.382437 14.2283 0.333252 19.1466C0.333252 31.9333 16.7833 46.1666 17.4833 46.7733C17.9059 47.1348 18.4438 47.3334 18.9999 47.3334C19.5561 47.3334 20.0939 47.1348 20.5166 46.7733C21.3333 46.1666 37.6666 31.9333 37.6666 19.1466C37.6174 14.2283 35.629 9.52821 32.1337 6.06781C28.6383 2.6074 23.9185 0.66638 18.9999 0.666626ZM18.9999 26.3333C17.3847 26.3333 15.8058 25.8543 14.4628 24.957C13.1198 24.0596 12.073 22.7841 11.4549 21.2919C10.8368 19.7996 10.6751 18.1576 10.9902 16.5734C11.3053 14.9892 12.0831 13.534 13.2252 12.3919C14.3673 11.2498 15.8225 10.472 17.4067 10.1569C18.9909 9.84177 20.6329 10.0035 22.1252 10.6216C23.6174 11.2397 24.8929 12.2865 25.7903 13.6295C26.6876 14.9725 27.1666 16.5514 27.1666 18.1666C27.1666 20.3326 26.3062 22.4098 24.7746 23.9413C23.2431 25.4729 21.1659 26.3333 18.9999 26.3333Z" fill="#B91C1C"/>
</svg>
