<svg width="22" height="26" viewBox="0 0 22 26" fill="none" xmlns="http://www.w3.org/2000/svg">
<path d="M20.2306 15.7692V12.5385C20.2306 11.4368 19.7929 10.3802 19.0139 9.60125C18.235 8.82225 17.1784 8.38462 16.0767 8.38462H14.2306C13.8634 8.38462 13.5112 8.23874 13.2515 7.97907C12.9918 7.71941 12.846 7.36722 12.846 7V5.15385C12.846 4.05218 12.4083 2.99563 11.6293 2.21663C10.8503 1.43764 9.79379 1 8.69212 1H6.38443M7.3075 18.5385V19.4615M10.9998 15.7692V19.4615M14.6921 13V19.4615M9.15366 1H3.15366C2.38935 1 1.76904 1.62031 1.76904 2.38462V23.6154C1.76904 24.3797 2.38935 25 3.15366 25H18.846C19.6103 25 20.2306 24.3797 20.2306 23.6154V12.0769C20.2306 9.13914 19.0636 6.32168 16.9862 4.24436C14.9089 2.16703 12.0914 1 9.15366 1V1Z" stroke="white" stroke-width="2" stroke-linecap="round" stroke-linejoin="round"/>
</svg>
