<svg width="71" height="53" viewBox="0 0 71 53" fill="none" xmlns="http://www.w3.org/2000/svg">
<path d="M16.7498 21C15.9693 21 15.2203 21.119 14.4748 21.2275C14.7163 20.4155 14.9648 19.5895 15.3638 18.8475C15.7628 17.7695 16.3858 16.835 17.0053 15.8935C17.5233 14.875 18.4368 14.1855 19.1088 13.314C19.8123 12.467 20.7713 11.9035 21.5308 11.2C22.2763 10.465 23.2528 10.0975 24.0298 9.57948C24.8418 9.11398 25.5488 8.59948 26.3048 8.35448L28.1913 7.57748L29.8503 6.88798L28.1528 0.10498L26.0633 0.608979C25.3948 0.776979 24.5793 0.972979 23.6518 1.20748C22.7033 1.38248 21.6918 1.86198 20.5648 2.29948C19.4518 2.79648 18.1638 3.13248 16.9668 3.93048C15.7628 4.69348 14.3733 5.33048 13.1483 6.35248C11.9618 7.40598 10.5303 8.31948 9.47328 9.65998C8.31828 10.913 7.17728 12.229 6.29178 13.727C5.26628 15.155 4.56978 16.723 3.83478 18.2735C3.16978 19.824 2.63428 21.4095 2.19678 22.9495C1.36728 26.0365 0.996276 28.9695 0.852776 31.479C0.733776 33.992 0.803776 36.0815 0.950776 37.5935C1.00328 38.3075 1.10128 39.0005 1.17128 39.48L1.25878 40.068L1.34978 40.047C1.97229 42.9549 3.40534 45.6271 5.48315 47.7546C7.56096 49.8821 10.1986 51.3779 13.091 52.0689C15.9834 52.7599 19.0123 52.6179 21.8274 51.6594C24.6425 50.7009 27.1287 48.965 28.9984 46.6525C30.8681 44.34 32.0449 41.5454 32.3927 38.592C32.7405 35.6386 32.2451 32.6471 30.9637 29.9636C29.6824 27.28 27.6675 25.014 25.1521 23.4277C22.6367 21.8415 19.7236 20.9998 16.7498 21ZM55.2498 21C54.4693 21 53.7203 21.119 52.9748 21.2275C53.2163 20.4155 53.4648 19.5895 53.8638 18.8475C54.2628 17.7695 54.8858 16.835 55.5053 15.8935C56.0233 14.875 56.9368 14.1855 57.6088 13.314C58.3123 12.467 59.2713 11.9035 60.0308 11.2C60.7763 10.465 61.7528 10.0975 62.5298 9.57948C63.3418 9.11398 64.0488 8.59948 64.8048 8.35448L66.6913 7.57748L68.3503 6.88798L66.6528 0.10498L64.5633 0.608979C63.8948 0.776979 63.0793 0.972979 62.1518 1.20748C61.2033 1.38248 60.1918 1.86198 59.0648 2.29948C57.9553 2.79998 56.6638 3.13248 55.4668 3.93398C54.2628 4.69698 52.8733 5.33398 51.6483 6.35598C50.4618 7.40948 49.0303 8.32298 47.9733 9.65998C46.8183 10.913 45.6773 12.229 44.7918 13.727C43.7663 15.155 43.0698 16.723 42.3348 18.2735C41.6698 19.824 41.1343 21.4095 40.6968 22.9495C39.8673 26.0365 39.4963 28.9695 39.3528 31.479C39.2338 33.992 39.3038 36.0815 39.4508 37.5935C39.5033 38.3075 39.6013 39.0005 39.6713 39.48L39.7588 40.068L39.8498 40.047C40.4723 42.9549 41.9053 45.6271 43.9832 47.7546C46.061 49.8821 48.6986 51.3779 51.591 52.0689C54.4834 52.7599 57.5123 52.6179 60.3274 51.6594C63.1425 50.7009 65.6287 48.965 67.4984 46.6525C69.3681 44.34 70.5449 41.5454 70.8927 38.592C71.2405 35.6386 70.7451 32.6471 69.4637 29.9636C68.1824 27.28 66.1675 25.014 63.6521 23.4277C61.1367 21.8415 58.2236 20.9998 55.2498 21Z" fill="#FCE092"/>
</svg>
