<svg width="16" height="16" viewBox="0 0 16 16" fill="none" xmlns="http://www.w3.org/2000/svg">
<path d="M8 14.75C9.49625 14.7499 10.9501 14.2529 12.1333 13.337C13.3164 12.4211 14.1619 11.1382 14.537 9.68975M8 14.75C6.50376 14.7499 5.04991 14.2529 3.86673 13.337C2.68356 12.4211 1.83806 11.1382 1.463 9.68975M8 14.75C9.86375 14.75 11.375 11.7275 11.375 8C11.375 4.2725 9.86375 1.25 8 1.25M8 14.75C6.13625 14.75 4.625 11.7275 4.625 8C4.625 4.2725 6.13625 1.25 8 1.25M8 1.25C9.19718 1.2495 10.3729 1.56752 11.4066 2.17142C12.4403 2.77533 13.2948 3.64338 13.8823 4.6865M8 1.25C6.80282 1.2495 5.62706 1.56752 4.59336 2.17142C3.55966 2.77533 2.70523 3.64338 2.11775 4.6865M13.8823 4.6865C12.2493 6.10095 10.1604 6.87811 8 6.875C5.7515 6.875 3.695 6.05 2.11775 4.6865M13.8823 4.6865C14.4529 5.69749 14.7519 6.83908 14.75 8C14.75 8.5835 14.6758 9.14975 14.537 9.68975M14.537 9.68975C12.5369 10.7985 10.2869 11.3786 8 11.375C5.6285 11.375 3.40025 10.7638 1.463 9.68975M1.463 9.68975C1.32106 9.13773 1.2495 8.56998 1.25 8C1.25 6.79625 1.565 5.66525 2.11775 4.6865" stroke="#52525B" stroke-width="1.5" stroke-linecap="round" stroke-linejoin="round"/>
</svg>
